<svg height="457pt" viewBox="0 -51 457.14223 457" width="457pt" xmlns="http://www.w3.org/2000/svg"><path d="m455.167969 127.578125c-1.738281-2.1875-4.375-3.460937-7.167969-3.460937h-40.554688v-62.855469c0-5.046875-4.089843-9.140625-9.140624-9.140625h-251.332032l-37.785156-48.523438c-1.730469-2.226562-4.394531-3.5273435-7.214844-3.5273435h-92.828125c-5.054687 0-9.144531 4.0937495-9.144531 9.1445315v335.8125s.164062 3.21875 1.972656 5.675781c1.65625 2.253906 4.375 3.464844 7.171875 3.464844h389.160157c4.238281 0 7.925781-2.917969 8.902343-7.050781l49.695313-211.769532c.632812-2.71875 0-5.582031-1.734375-7.769531zm-357.660157-109.222656 37.785157 48.523437c1.734375 2.226563 4.394531 3.527344 7.214843 3.527344h246.652344v53.710938h-330.320312c-4.242188 0-7.929688 2.917968-8.902344 7.050781l-31.652344 134.875v-247.6875zm293.546876 317.527343h-370.375l45.410156-193.480468h370.375zm0 0"/></svg>